<svg xmlns="http://www.w3.org/2000/svg" viewBox="0 0 156.93 231.19" xmlns:v="https://vecta.io/nano"><path d="M153.1 208.7h-3.22l.25-2.82.74-8a4.91 4.91 0 0 0-1.14-3 3.21 3.21 0 0 0-3.71-.84 3.73 3.73 0 0 0-2.56 3.4l-.55 5.88-.6 5.34H14.65a7.49 7.49 0 0 1-.18-.83l-5.82-58.06c-.53-5 2.27-8.37 7.4-8.34l125.63.07a6.37 6.37 0 0 1 6.57 7.69c-.1.7-.16 1.44-.24 2.16q-1.53 15.33-3.07 30.66a3.86 3.86 0 0 0 3.16 4.29 3.65 3.65 0 0 0 4.19-3.05c.38-2.4.6-4.84.85-7.26l2.53-25.55c1.1-9.6-4.8-16.4-14.46-16.4H44.88c-10.12 0-20.24-.05-30.36 0A13.61 13.61 0 0 0 1.07 149.6c1 8.38 1.77 16.8 2.63 25.22q1.35 13.32 2.68 26.63l.64 7.3H3.96c-2.6 0-3.94 1.38-4 3.94-.1 9.47 7.55 17.9 17 18.38 5.74.3 11.52.1 17.28.06a3.19 3.19 0 0 0 3.18-2.29 3.63 3.63 0 0 0-3.56-5.13c-5 0-10.07 0-15.1-.06a13.18 13.18 0 0 1-4.52-.9 9.78 9.78 0 0 1-5.93-6.39H149a17.86 17.86 0 0 1-.76 1.72 10.81 10.81 0 0 1-9.91 5.61q-34.87 0-69.75 0h-19.9a3.62 3.62 0 0 0-3.8 4.38c.27 2 1.74 3.08 4.17 3.08h89.5c10.195-.05 18.423-8.345 18.4-18.54a3.57 3.57 0 0 0-3.85-3.91zM25.94 130.87a4.57 4.57 0 0 0 3.61-1.45 21.92 21.92 0 0 1 12.39-6.76l19.9-3.47a2.37 2.37 0 0 1 1.66.5 24.78 24.78 0 0 0 30.59.1 3.26 3.26 0 0 1 2.23-.48l15.18 2.57c3.42.6 7 .9 10 2.77a73 73 0 0 1 7 5.15c2.18 1.74 4.27 1.64 5.76-.47 1.1-1.57.87-3.3-.65-4.92-4.06-4.28-8.88-7.48-14.64-8.68-6.64-1.37-13.4-2.22-20.12-3.17-1.36-.2-1.7-.64-1.67-1.93.08-3.47.07-6.95 0-10.43a2.93 2.93 0 0 1 1.33-2.7c8.24-6.37 13.27-14.75 13.43-25.18.1-6.28 1.2-11.94 4.37-17.26a5.85 5.85 0 0 0 .28-.56c1.8-3.9 3.87-7.66 4.2-12.1.5-7.17-1.42-13.23-7.53-17.5a2.52 2.52 0 0 1-1.16-2.17 17.58 17.58 0 0 0-5.23-11.81c-1.83-1.77-4.17-1.8-5.66-.17a3.84 3.84 0 0 0 .49 5.63 8.14 8.14 0 0 1 2.87 5.36h-1.4c-2.5 0-3.7 1.25-3.7 3.76s1.4 3.77 3.9 3.86c4.37.17 7.54 2.22 9.17 6.28 2.44 6.06.77 10.36-2.65 16-.2-.42-.4-.77-.55-1.14a15.58 15.58 0 0 0-25.4-5.3c-4.37 4.07-9.53 4.65-14.7 1.57-9.62-5.8-15.06-14.38-16.3-25.47-.4-3.46-.06-7-.06-10.78.46.28.7.4.9.54a38.54 38.54 0 0 0 21.39 7.07 51.25 51.25 0 0 0 17.17-2.39c2.28-.7 3.23-2.4 2.48-4.52a3.35 3.35 0 0 0-5-2.1 28.22 28.22 0 0 1-12.52 2.67c-5.7 0-11.14-1.1-16-4.24L52.35 1.6A12.6 12.6 0 0 0 49.94.19c-2.22-.8-5.08.76-5.06 2.83l.47 20a3.37 3.37 0 0 1-1.41 3.44 19.11 19.11 0 0 0-5.72 23.73l6 12.65a8.16 8.16 0 0 1 .63 2.82c.3 3.87.1 7.82.8 11.6 1.58 8.64 6.34 15.4 13.32 20.67a2.06 2.06 0 0 1 .81 1.36q.1 6.06 0 12.14a1.38 1.38 0 0 1-.83 1c-3.82.7-7.68 1.2-11.5 2a115.17 115.17 0 0 0-12.54 2.89 26.85 26.85 0 0 0-11.43 7.84 3.47 3.47 0 0 0-.75 3.89c.57 1.43 1.8 1.8 3.2 1.8zm63.64-17.9c0 .4-.5.88-.87 1.18a17.1 17.1 0 0 1-20.55 0c-.38-.3-.88-.78-.9-1.18-.07-3.6 0-7.23 0-11.1a36 36 0 0 0 22.39 0l-.04 11.1zm-42.6-61.4c-4.63-6.47-4.47-15 .23-18.4l5.66 9.33a1.34 1.34 0 0 1 0 1.19c-1.82 2.63-3.7 5.2-5.58 7.8-.04.07-.17.06-.27.1zm5.3 19a85.32 85.32 0 0 1 .48-10.85 18.71 18.71 0 0 1 6-10.91c3.22 1.9 6.13 3.9 9.3 5.4 7 3.3 13.6 2.32 19.63-2.5.73-.58 1.4-1.24 2.13-1.8 5.2-4.07 12-.37 12.57 4.48.34 2.75 1.6 5.4 2 8.15 2 15-3.4 30.3-21.6 33.68a25.81 25.81 0 0 1-30.46-25.69zm-30.52 108.2a3.85 3.85 0 0 0 3.23-4.52l-.24-2.16-1.93-19.34c-.23-2.27-1.7-3.83-3.54-3.85a3.74 3.74 0 0 0-4 4l.56 5.88 1.74 16.7a3.63 3.63 0 0 0 4.18 3.29zM19.5 197.8a3.73 3.73 0 0 0 4.24 3.39 3.84 3.84 0 0 0 3.11-4.49l-.67-6.66c-.23-2.22-1.9-3.9-3.94-3.75-2.24.18-3.65 1.88-3.52 4.86l.78 6.65z"/></svg>