<svg xmlns="http://www.w3.org/2000/svg" viewBox="0 0 247.28 264.99" xmlns:v="https://vecta.io/nano"><path d="M188.4 132.78v109.47c0 14.06-8.67 22.7-22.78 22.7h-143c-13.9 0-22.6-8.7-22.6-22.56V22.56C.02 8.7 8.72.02 22.64.02h143.6c13.25 0 22.14 8.85 22.15 22.12q.03 55.3.01 110.64zM11.78 41.22v3.55q0 98.45 0 196.88c0 8.33 3.2 11.52 11.57 11.52H165.5c7.75 0 11.12-3.36 11.12-11.08V22.84c0-7.7-3.38-11-11.15-11q-69.9 0-139.8 0c-1.76 0-3.53-.07-5.3 0-4 .27-7.57 2.87-8.16 6.83-.53 3.5-.1 7.1-.1 10.8h114a33.09 33.09 0 0 1 4.11.09 5.85 5.85 0 0 1-.07 11.62 24 24 0 0 1-2.94.07H11.78zm188.4 118.62l.1-81.22a14.62 14.62 0 0 1 1.89-6.88c5.08-8.84 10.4-17.52 15.68-26.25 3.46-5.73 8.32-5.75 11.76 0l16 26.76a12.1 12.1 0 0 1 1.65 5.77q.14 81.5.06 163c.146 11.718-8.368 21.75-19.954 23.515a23.49 23.49 0 0 1-26.046-16.515 30.68 30.68 0 0 1-1-8.12q-.2-40.05-.13-80.06zm11.78-59.6v94.2q0 23.1 0 46.2c0 5.76 3 10.17 7.94 11.85 8 2.77 15.58-3.13 15.6-12.28q0-68.7 0-137.42c0-.84-.1-1.7-.16-2.55zm23.27-12c.92-6 .26-11.37-3.4-16.32-3-4-5.3-8.58-8.12-13.25-3.08 5.12-5.55 10.06-8.8 14.4-3.57 4.74-3 9.8-2.83 15.16zm-158.7 62a26.49 26.49 0 1 1-26.24-26.58c14.554.17 26.257 12.025 26.24 26.58zm-11.78 0a14.71 14.71 0 1 0-14.67 14.59c8.023-.096 14.52-6.548 14.67-14.57zM49.87 188.4a26.49 26.49 0 1 1-26.34 26.5 26.58 26.58 0 0 1 26.34-26.5zm0 11.78a14.71 14.71 0 1 0 14.81 14.45c-.215-8.002-6.735-14.394-14.74-14.45zm76.47-88.3q-15.43 0-30.86 0c-4.48 0-7.2-2.3-7.15-6s2.7-5.8 7-5.8q31.17 0 62.33 0c4.47 0 7.2 2.3 7.14 6s-2.72 5.78-7 5.8zm.1 64.76H94.7c-4.85 0-7.77-4.37-5.78-8.4a5.7 5.7 0 0 1 5.44-3.35q32.2 0 64.38 0a5.8 5.8 0 0 1 6.08 5.83c0 3.38-2.56 5.87-6.34 5.9l-32.04.02z"/><path d="M126.28 241.4H95.4c-4.33 0-7-2.2-7.08-5.75s2.65-6 7.1-6h62.32c4.42 0 7.17 2.4 7.08 6s-2.77 5.72-7.1 5.73zM23.55 85.46c0-14.28 11.68-26.4 25.7-26.56 3.92 0 6.67 2.37 6.67 5.85s-2.42 5.63-6.35 5.92c-8.44.63-14.52 7.2-14.22 15.35.3 7.58 6.3 13.47 14.34 14.07 5.14.38 7.88 5.07 5.26 9.06-1.37 2.1-3.4 2.76-5.82 2.7-13.9-.3-25.52-12.23-25.57-26.4z"/><path d="M120.6 94.2H95.32c-4.3 0-7-2.27-7-5.83s2.65-5.93 6.9-5.93q25.43 0 50.84 0c4.3 0 7 2.26 7 5.83s-2.65 5.92-6.9 5.93q-12.78.02-25.56 0zm.07 64.77q-12.65 0-25.28 0c-4.32 0-7-2.2-7.06-5.76s2.66-6 7.1-6H146c4.32 0 7 2.2 7.06 5.76s-2.66 6-7.1 6z"/><path d="M120.72 223.73H95.45c-4.47 0-7.2-2.34-7.12-6s2.73-5.77 7.06-5.77q25.28 0 50.55 0c4.46 0 7.2 2.34 7.1 6s-2.73 5.76-7.05 5.76q-12.65.03-25.28.01zm-8.85-147.17H95.13c-4.2 0-6.9-2.44-6.8-6S91 64.82 95.1 64.8q16.74 0 33.48 0c4.2 0 6.9 2.43 6.8 6s-2.68 5.75-6.76 5.75h-16.75z"/><path d="M111.87 129.56h16.74c4.18 0 6.88 2.45 6.8 6s-2.7 5.73-6.78 5.74q-16.74 0-33.5 0c-4.08 0-6.7-2.27-6.8-5.73s2.6-6 6.78-6l16.75-.01zm-.32 76.5H95.1c-4.1 0-6.7-2.27-6.77-5.75s2.6-6 6.8-6q16.74 0 33.48 0c4.08 0 6.7 2.28 6.77 5.75s-2.62 6-6.8 6h-17.03zM53.8 80.67l12.6-8.36c3.7-2.44 7-2.08 9 .9s1.2 6.37-2.6 8.93Q65 87.4 57.14 92.57c-3.7 2.43-6 2.2-9.16-.86l-5-5c-2.46-2.7-2.44-6.1-.07-8.42s5.68-2.27 8.44.17c.88.7 1.64 1.44 2.46 2.2zm96.22-39.47h-2.93a5.86 5.86 0 1 1-.07-11.72 57.27 57.27 0 0 1 5.86 0c3.55.13 6 2.56 6.06 5.83s-2.47 5.73-6 5.9c-.97.03-1.95-.01-2.92-.01z"/></svg>