<svg xmlns="http://www.w3.org/2000/svg" viewBox="0 0 251.88 286.81" xmlns:v="https://vecta.io/nano"><path d="M176.4 251.9c0-3.4.1-6.8-.07-10.18a5.3 5.3 0 0 0-1.31-3.22 11.79 11.79 0 0 1-3.43-8.3c-.26-8.23-2.88-15.56-8.95-21.38a59.1 59.1 0 0 1-13.38-18.11 53 53 0 0 1-4.17-31.57 51.4 51.4 0 0 1 21.58-34.29c10.93-7.8 23.26-11.47 36.64-10.3a51 51 0 0 1 36.28 19.52c14.28 17.62 16.28 41 5.18 60.65-2.8 4.95-6.82 9.3-10.76 13.48-4.7 5-8 10.54-9.07 17.32a30 30 0 0 0-.35 4.83 11.43 11.43 0 0 1-3.25 7.92 6.09 6.09 0 0 0-1.49 3.58c-.15 6.1-.06 12.18-.07 18.28 0 7.88-2.57 11.2-10.1 13.66-.66.22-1.3 1.54-1.37 2.4-.28 2.95-.4 5.9-2.86 8-3.63 3.17-7.9 3-12 1.7-3.78-1.2-5.55-4.4-5.4-8.3.1-2.7-.7-3.85-3.43-4.5-5-1.2-8-5.6-8.16-11.06-.07-3.4 0-6.8 0-10.18zm21.6-18.45h14.82c3.58 0 4-.4 4.45-4.07.23-2 .17-4 .53-6 1.68-9.18 6.74-16.34 13.3-22.77 14.8-14.48 17.6-38.64 6.8-56.3-12.1-19.84-35.43-27.74-56.94-19-15.46 6.3-25.42 17.75-28.45 34.23-3 16.15 1.52 30.44 13.47 42 8 7.76 12.8 16.86 12.82 28.22 0 2.77 1.07 3.65 3.9 3.67l15.3.02zm-.12 7.73h0-11.8c-1.33 0-2.24.3-2.24 1.9l.06 19.18c0 2.46 1.66 4 4.2 4q9.93.12 19.87 0c2.8 0 4.1-1.4 4.1-4.18v-18.5c0-1.8-.68-2.48-2.46-2.45-3.93.08-7.86.04-11.76.04zm.46 32.6c-1.92-.3-3.07.15-3 2.5.06 1.94.44 3 2.7 3 2.08 0 2.9-.7 2.87-2.83-.02-1.87-.36-3.1-2.6-2.66zM.01 152.2q0-59.94 0-119.9c0-5 1-6 5.9-6h29.4c2.25.15 3.83 1.65 3.8 3.56a3.74 3.74 0 0 1-3.87 3.53H10.72c-3.28 0-3.3 0-3.3 3.4V140.3q0 63.3 0 126.6c0 3.95 0 4 3.87 4h157.17a15.76 15.76 0 0 1 3 .13 3.42 3.42 0 0 1 3.13 3.67 3.37 3.37 0 0 1-3.07 3.48 13.34 13.34 0 0 1-2.53.15H6.03c-4.85 0-6-1.2-6-6Q0 212.27.01 152.2zm100.52-97.08c-13.8 0-27.63-.17-41.43.08-6.73.1-13.3-4.34-13.22-13.13v-22c0-4.12 1.1-5.3 5.23-5.23 2.36 0 3.23-.86 3-3.14C53.46 4.63 59.2-.06 65.95 0l70.35.08c7 0 11.27 4.24 11.38 11.18.06 3.47.06 3.47 3.47 3.56s4.73 1.26 4.73 4.8v22.92c-.1 7.64-5.17 12.55-13 12.55q-21.18.1-42.35.05zm.35-33.4H55.76c-2.86 0-3 .14-3 3V42.3c0 3.88 2 5.85 5.88 5.85q42.1 0 84.2 0c4.17 0 6.07-1.93 6.1-6.1v-17.1c0-3.16-.1-3.23-3.26-3.23zm0-6.92h37.87c1.52 0 2.17-.66 2.08-2.3-.24-4.57-1.13-5.5-5.74-5.5H66.64a15.34 15.34 0 0 0-2.54.11c-2.42.43-3.3 2.18-3.1 5.58.14 2.6 2 2.1 3.52 2.1q18.15 0 36.36-.01zm-.08 78.8q-28.45 0-56.9 0c-4.73 0-5.9-1.13-5.94-5.84V74.1c.06-3.92 1.3-5.15 5.18-5.15q57.72 0 115.44 0c4 0 5.2 1.25 5.24 5.33v13.65c-.05 4.55-1.23 5.65-5.66 5.65q-28.68 0-57.37 0zm0-7.45q24.63 0 49.27 0c6.37 0 6.37 0 6.32-6.34 0-3.4 0-3.4-3.5-3.4H51.82c-6.48 0-6.48 0-6.45 6.5 0 3.25 0 3.25 3.17 3.25zM201.76 68.4v35.87a17.78 17.78 0 0 1-.08 2.31 3.73 3.73 0 0 1-3.84 3.55 3.5 3.5 0 0 1-3.44-3.85l-.05-26.15q0-21.75 0-43.5c0-3.07-.1-3.16-3.08-3.16h-23.13a13.44 13.44 0 0 1-2.54-.15 3.5 3.5 0 0 1 .16-6.91 11.36 11.36 0 0 1 1.85-.09q14.46 0 28.92 0c4 0 5.22 1.2 5.23 5.3q0 18.4 0 36.8zM71.88 113.92h27.5a17.78 17.78 0 0 1 2.31.07 3.44 3.44 0 0 1 3.28 3.55 3.35 3.35 0 0 1-2.94 3.59 13.41 13.41 0 0 1-2.76.21H43.3c-3.15-.08-4.87-1.43-4.82-3.78s1.83-3.64 4.93-3.65zm-7 30.08c-7.25 0-14.5 0-21.76-.05a5.38 5.38 0 0 1-3.38-1 3.85 3.85 0 0 1-1.1-3.21c.34-1.13 1.6-2.05 2.62-2.87.4-.32 1.2-.18 1.8-.18q21.87 0 43.75 0c2.8 0 4.26 1.14 4.44 3.32.2 2.53-1.26 4-4.16 4-7.42.06-14.82-.01-22.22-.01zm-1.3 37.98H83.2a9.51 9.51 0 0 1 2.51.23 3.46 3.46 0 0 1 2.7 3.59 3.15 3.15 0 0 1-2.67 3.29 13.43 13.43 0 0 1-3 .3q-19.3 0-38.6 0a14.11 14.11 0 0 1-2.52-.17c-2-.38-3.24-1.57-3.17-3.64s1.4-3.18 3.4-3.5a17.79 17.79 0 0 1 2.53-.1zm39.63-15.24q-9.6 0-19.22 0a10.55 10.55 0 0 1-2.52-.19 3.46 3.46 0 0 1-2.82-3.5 3.17 3.17 0 0 1 2.76-3.46 14.07 14.07 0 0 1 3-.28q19.1 0 38.2 0a14.84 14.84 0 0 1 3 .3 3.16 3.16 0 0 1 2.72 3.26 3.38 3.38 0 0 1-2.65 3.61 10.08 10.08 0 0 1-2.75.26h-19.67zm33.12-52.84h19a10.08 10.08 0 0 1 2.75.26 3.34 3.34 0 0 1 2.56 3.44 3.22 3.22 0 0 1-2.59 3.38 13.83 13.83 0 0 1-3.21.33q-18.74 0-37.47 0c-3.86 0-5.55-1.15-5.54-3.7s1.84-3.7 5.57-3.7zM122.4 144h-18.7a11.19 11.19 0 0 1-2.53-.13 3.48 3.48 0 0 1-3-3.56 3.52 3.52 0 0 1 3-3.55 8.91 8.91 0 0 1 2.07-.11h39.53c2.36.16 3.95 1.66 3.94 3.7s-1.54 3.58-4 3.62h-20.34zm17.84 94.46h17.82a13.41 13.41 0 0 1 2.76.21 3.26 3.26 0 0 1 2.77 3.25 3.36 3.36 0 0 1-2.34 3.59 7 7 0 0 1-2.49.36q-18.75 0-37.5 0c-2.74 0-4.27-1-4.64-2.9-.52-2.65 1.2-4.5 4.4-4.5l19.2.01zm-78.72 7.46H43.25a8 8 0 0 1-2.92-.47 3.29 3.29 0 0 1-2-3.75 3.14 3.14 0 0 1 2.73-3 12.53 12.53 0 0 1 2.53-.2q18 0 36.06 0c3.87 0 5.54 1.1 5.6 3.64s-1.68 3.8-5.65 3.8h-18zm-6.5-79.18h-12c-2.85 0-4.42-1.3-4.5-3.57s1.55-3.8 4.52-3.83q12.15-.07 24.3 0c3 0 4.57 1.45 4.5 3.8s-1.73 3.57-4.73 3.6h-12zm55.6 22.66H99.76c-3 0-4.53-1.4-4.48-3.8s1.6-3.6 4.44-3.6q10.86-.06 21.73 0c2.9 0 4.54 1.45 4.5 3.8s-1.6 3.56-4.46 3.6h-10.86z"/><path d="M198.02 279.26c-2.25 0-2.63-1.05-2.7-3-.1-2.34 1.06-2.8 3-2.5" fill="#fff"/><path d="M172.63 156.58l-1.68-3.1c-1.75-3.2-1.47-5.86 1-8.47l4.28-4.22a6.16 6.16 0 0 1 7.87-.79l3.53 1.87c.9-6.06 3.84-9.15 10.3-9.07 6.28.07 9.78 2.47 10.47 9 3.5-1.37 6.47-4.47 9.83-2.05a32.49 32.49 0 0 1 7.29 7.28c2.4 3.35-.44 6.37-2 9.6l3.5 1.15a7 7 0 0 1 5.31 7v3.7c.26 4.5-2.13 7.85-6.36 8.53-2.44.4-2.5.9-1.27 3.1 2.48 4.44 2.18 6.67-1.38 10.3l-1.44 1.43c-4.35 4.35-5.84 4.6-11.3 1.7-1.55-.82-2.17-.38-2.65 1.17-1.74 5.72-3.18 6.74-9.08 6.74h-3c-4.1-.07-6.43-2-7.35-6-.65-2.8-.9-2.93-3.28-1.6-4.4 2.45-6.56 2.16-10.1-1.34l-1.8-1.8c-4.1-4.1-4.4-5.9-1.58-11 .88-1.58.64-2.5-1.17-2.75-4.74-.65-7-3.73-6.65-8.9v-2.08c0-5.46 1.17-7 6.46-8.62.6-.16 1.24-.4 2.25-.77zm46.25-6.16c-.06-2.33-3.52-4.3-5.3-3.3s-3.3 2-5 2.87c-2.83 1.36-4.83.5-5.74-2.45-.6-1.9-1.1-3.85-1.53-5.8-.38-1.7-1.53-1.9-3-1.86s-3-.2-3.46 1.82a77.79 77.79 0 0 1-1.48 5.58c-1 3.33-3.06 4.16-6.2 2.5a55.87 55.87 0 0 1-4.78-2.81c-1.54-1.02-2.54-.17-3.58.86s-2 2.12-1 3.8 1.94 3.15 2.84 4.77c1.68 3 .75 5.27-2.55 6.17-1.78.48-3.56 1-5.37 1.38s-2 1.67-2 3.14-.12 3 1.9 3.38a57.6 57.6 0 0 1 5.8 1.55c3 1 3.8 3 2.32 5.76q-1.38 2.53-3 5c-1.07 1.64-.2 2.67.9 3.8s2.18 1.9 3.8.85 3.28-2 5-3c2.77-1.56 4.68-.83 5.68 2.25a63.72 63.72 0 0 1 1.6 5.8c.44 1.96 1.9 2 3.53 2.07s2.63-.42 3-2.13a49.61 49.61 0 0 1 1.62-6c.92-2.62 2.84-3.35 5.28-2.08a59.54 59.54 0 0 1 5.2 3c1.7 1.13 2.8.42 4-.8s1.9-2.15.76-3.78a52 52 0 0 1-2.83-4.77c-1.52-2.82-.67-5 2.35-6 1.83-.58 3.75-.9 5.56-1.56a3.25 3.25 0 0 0 1.91-1.65c.92-2.8 0-4.26-2.82-5-.67-.18-1.33-.4-2-.58-6.78-1.82-7.25-3-3.62-9 .85-1.28 1.54-2.65 2.17-3.74zm-20.83 30.23c-7.456 0-13.5-6.044-13.5-13.5s6.044-13.5 13.5-13.5 13.5 6.044 13.5 13.5-6.044 13.5-13.5 13.5zm0-6.93a6.55 6.55 0 1 0-5.673-9.825 6.55 6.55 0 0 0 5.672 9.825z"/></svg>