<svg id="Livello_1" data-name="Livello 1" xmlns="http://www.w3.org/2000/svg" xmlns:xlink="http://www.w3.org/1999/xlink" viewBox="0 0 300 300"><defs><style>.cls-1{fill:url(#Nuovo_campione_sfumatura_1);}</style><linearGradient id="Nuovo_campione_sfumatura_1" x1="40.43" y1="73.03" x2="247.62" y2="280.22" gradientUnits="userSpaceOnUse"><stop offset="0" stop-color="#1b1464" stop-opacity="0.7"/><stop offset="0.06" stop-color="#162e6e" stop-opacity="0.72"/><stop offset="0.17" stop-color="#0e5a7f" stop-opacity="0.75"/><stop offset="0.28" stop-color="#087d8c" stop-opacity="0.77"/><stop offset="0.39" stop-color="#049595" stop-opacity="0.79"/><stop offset="0.51" stop-color="#01a49b" stop-opacity="0.8"/><stop offset="0.62" stop-color="#00a99d" stop-opacity="0.8"/><stop offset="1" stop-color="#bef2e1"/></linearGradient></defs><title>i</title><path class="cls-1" d="M242.08,266.37h-4l.31-3.54.93-10a6.15,6.15,0,0,0-1.43-3.76A4,4,0,0,0,233.2,248a4.69,4.69,0,0,0-3.22,4.27l-.69,7.37-.75,6.7H68.43a9.18,9.18,0,0,1-.23-1l-7.3-72.82c-.66-6.27,2.85-10.5,9.28-10.46l157.57.08a8,8,0,0,1,8.41,7.56,8.17,8.17,0,0,1-.17,2.09c-.12.88-.2,1.8-.3,2.71q-1.92,19.23-3.85,38.45a4.83,4.83,0,0,0,4,5.38,4.57,4.57,0,0,0,5.25-3.79v0c.48-3,.75-6.07,1.07-9.11l3.17-32c1.38-12-6-20.57-18.14-20.57H106.34c-12.69,0-25.38-.07-38.08,0a17.06,17.06,0,0,0-17,17.09,17.79,17.79,0,0,0,.17,2.42c1.26,10.51,2.22,21.07,3.3,31.64q1.7,16.69,3.36,33.4l.81,9.15H55c-3.26,0-4.94,1.73-5,4.94-.12,11.88,9.47,22.45,21.32,23.06,7.2.37,14.45.12,21.68.07a4,4,0,0,0,4-2.87,4.56,4.56,0,0,0-2.25-6,4.6,4.6,0,0,0-2.22-.41c-6.27,0-12.63,0-18.94-.07A16.45,16.45,0,0,1,67.91,284a12.27,12.27,0,0,1-7.44-8H236.93a21.61,21.61,0,0,1-1,2.15,13.56,13.56,0,0,1-12.43,7H111.11a4.54,4.54,0,0,0-4.86,4.2,4.65,4.65,0,0,0,.09,1.29c.34,2.51,2.18,3.87,5.23,3.87H223.83a23.2,23.2,0,0,0,23.07-23.26,4.46,4.46,0,0,0-4-4.89,4.38,4.38,0,0,0-.81,0ZM82.59,168.75a5.72,5.72,0,0,0,4.52-1.82,27.56,27.56,0,0,1,15.54-8.48l25-4.35a3,3,0,0,1,2.09.63,31.07,31.07,0,0,0,38.36.12,4.12,4.12,0,0,1,2.8-.6l19,3.23c4.29.75,8.78,1.12,12.54,3.47a90.92,90.92,0,0,1,8.78,6.46c2.74,2.18,5.36,2.06,7.23-.59,1.38-2,1.09-4.14-.82-6.17-5.09-5.37-11.14-9.38-18.36-10.89-8.33-1.72-16.81-2.78-25.24-4-1.7-.25-2.13-.81-2.09-2.42.1-4.36.09-8.72,0-13.09a3.66,3.66,0,0,1,1.67-3.38c10.33-8,16.64-18.5,16.84-31.58.13-7.88,1.51-15,5.48-21.65a6.67,6.67,0,0,0,.35-.71c2.26-4.89,4.86-9.6,5.27-15.17.63-9-1.78-16.6-9.44-21.95a3.15,3.15,0,0,1-1.46-2.72,22.07,22.07,0,0,0-6.56-14.82c-2.29-2.22-5.23-2.25-7.1-.21a4.83,4.83,0,0,0,.31,6.81l.31.25a10.23,10.23,0,0,1,3.6,6.73h-1.76c-3.13,0-4.64,1.56-4.64,4.71s1.76,4.73,4.89,4.84c5.48.22,9.46,2.79,11.5,7.88,3.06,7.6,1,13-3.32,20.07-.25-.53-.5-1-.69-1.43a19.55,19.55,0,0,0-31.86-6.65c-5.48,5.11-12,5.83-18.43,2C124.83,56,118,45.23,116.45,31.32c-.5-4.34-.07-8.78-.07-13.52.57.35.87.5,1.12.68a48.39,48.39,0,0,0,26.83,8.87,64.2,64.2,0,0,0,21.54-3c2.86-.88,4-3,3.11-5.67a4.2,4.2,0,0,0-6.27-2.63A35.48,35.48,0,0,1,147,19.4c-7.14,0-14-1.38-20.06-5.32L115.71,6.62a15.51,15.51,0,0,0-3-1.77c-2.79-1-6.37,1-6.35,3.55l.59,25.08a4.24,4.24,0,0,1-1.77,4.32A24,24,0,0,0,98,67.56l7.52,15.87A10,10,0,0,1,106.3,87c.38,4.86.13,9.81,1,14.55,2,10.84,8,19.32,16.7,25.93a2.56,2.56,0,0,1,1,1.7q.12,7.61,0,15.23a1.75,1.75,0,0,1-1,1.25c-4.79.88-9.63,1.51-14.42,2.51a145.71,145.71,0,0,0-15.73,3.63,33.6,33.6,0,0,0-14.34,9.83,4.35,4.35,0,0,0-.94,4.88c.72,1.79,2.26,2.26,4,2.26Zm79.82-22.45c0,.5-.63,1.1-1.09,1.48a21.45,21.45,0,0,1-25.78,0c-.48-.38-1.1-1-1.13-1.48-.09-4.52,0-9.07,0-13.92a45.22,45.22,0,0,0,28.08,0l-.05,13.92ZM109,69.29c-5.81-8.12-5.61-18.81.28-23.08l7.1,11.7a1.65,1.65,0,0,1,0,1.5c-2.28,3.3-4.64,6.52-7,9.78,0,.09-.21.07-.33.12Zm6.64,23.83a106.72,106.72,0,0,1,.61-13.61,23.44,23.44,0,0,1,7.52-13.68c4,2.38,7.69,4.89,11.67,6.77,8.77,4.14,17.05,2.91,24.62-3.13.91-.73,1.75-1.56,2.67-2.26,6.52-5.11,15-.47,15.76,5.62.43,3.45,2,6.77,2.51,10.22,2.51,18.81-4.26,38-27.09,42.24a32.34,32.34,0,0,1-38.2-32.22ZM77.34,228.83a4.83,4.83,0,0,0,4.09-5.47,1.42,1.42,0,0,0,0-.2l-.3-2.71-2.42-24.26c-.29-2.84-2.13-4.8-4.44-4.82a4.68,4.68,0,0,0-5,4.34,3.75,3.75,0,0,0,0,.67l.7,7.38L72.1,224.7A4.56,4.56,0,0,0,77,228.87l.33,0ZM74.51,252.7a4.68,4.68,0,0,0,5,4.28l.28,0a4.82,4.82,0,0,0,3.91-5.58v-.05L82.89,243c-.29-2.78-2.39-4.89-4.94-4.7-2.81.23-4.58,2.36-4.42,6.1l1,8.34Z"/></svg>