<svg id="Livello_1" data-name="Livello 1" xmlns="http://www.w3.org/2000/svg" xmlns:xlink="http://www.w3.org/1999/xlink" viewBox="0 0 300 300"><defs><style>.cls-1{fill:url(#Nuovo_campione_sfumatura_1);}.cls-2{fill:url(#Nuovo_campione_sfumatura_1-2);}.cls-3{fill:url(#Nuovo_campione_sfumatura_1-3);}</style><linearGradient id="Nuovo_campione_sfumatura_1" x1="20.99" y1="102.56" x2="130.62" y2="212.19" gradientUnits="userSpaceOnUse"><stop offset="0" stop-color="#1b1464" stop-opacity="0.7"/><stop offset="0.06" stop-color="#162e6e" stop-opacity="0.72"/><stop offset="0.17" stop-color="#0e5a7f" stop-opacity="0.75"/><stop offset="0.28" stop-color="#087d8c" stop-opacity="0.77"/><stop offset="0.39" stop-color="#049595" stop-opacity="0.79"/><stop offset="0.51" stop-color="#01a49b" stop-opacity="0.8"/><stop offset="0.62" stop-color="#00a99d" stop-opacity="0.8"/><stop offset="1" stop-color="#bef2e1"/></linearGradient><linearGradient id="Nuovo_campione_sfumatura_1-2" x1="113.59" y1="126.53" x2="239.91" y2="252.85" xlink:href="#Nuovo_campione_sfumatura_1"/><linearGradient id="Nuovo_campione_sfumatura_1-3" x1="14.16" y1="15.21" x2="286.51" y2="287.55" xlink:href="#Nuovo_campione_sfumatura_1"/></defs><title>i</title><path class="cls-1" d="M95.44,247.38V119.87H54.52V247.38ZM76.51,100.57c13.63,0,22.13-9.77,22.13-22-.22-12.45-8.5-22-21.91-22s-22.13,9.53-22.13,22c0,12.22,8.49,22,21.61,22Z"/><path class="cls-2" d="M198.13,117c-21.69,0-31,12.22-37,20.72V119.94h-41V247.38h41V174.79c0-3.72.29-7.45,1.41-10.06,3-7.45,9.69-15.13,21-15.13,14.83,0,20.79,11.4,20.79,28.1v69.68h41V172.93C245.38,134.7,225.11,117,198.13,117Z"/><path class="cls-3" d="M270.12,8.9H31.34C18.3,8.9,6.9,18.29,6.9,31.18v239.3c0,13,11.4,24.52,24.44,24.52H270.05c13.11,0,22.95-11.63,22.95-24.52V31.18C293.07,18.29,283.16,8.9,270.12,8.9Zm-2.38,262.33H33.06a2.28,2.28,0,0,1-2.31-2.31V34.24a1.54,1.54,0,0,1,1.49-1.49h235.5a1.6,1.6,0,0,1,1.49,1.49v235.5A1.6,1.6,0,0,1,267.74,271.23Z"/></svg>