<svg id="Livello_1" data-name="Livello 1" xmlns="http://www.w3.org/2000/svg" xmlns:xlink="http://www.w3.org/1999/xlink" viewBox="0 0 300 300"><defs><style>.cls-1{fill:url(#Nuovo_campione_sfumatura_1);}.cls-2{fill:url(#Nuovo_campione_sfumatura_1-2);}.cls-3{fill:url(#Nuovo_campione_sfumatura_1-3);}.cls-4{fill:url(#Nuovo_campione_sfumatura_1-4);}.cls-5{fill:url(#Nuovo_campione_sfumatura_1-5);}.cls-6{fill:url(#Nuovo_campione_sfumatura_1-6);}.cls-7{fill:url(#Nuovo_campione_sfumatura_1-7);}.cls-8{fill:url(#Nuovo_campione_sfumatura_1-8);}.cls-9{fill:url(#Nuovo_campione_sfumatura_1-9);}.cls-10{fill:url(#Nuovo_campione_sfumatura_1-10);}.cls-11{fill:url(#Nuovo_campione_sfumatura_1-11);}.cls-12{fill:url(#Nuovo_campione_sfumatura_1-12);}.cls-13{fill:url(#Nuovo_campione_sfumatura_1-13);}.cls-14{fill:url(#Nuovo_campione_sfumatura_1-14);}.cls-15{fill:url(#Nuovo_campione_sfumatura_1-15);}.cls-16{fill:url(#Nuovo_campione_sfumatura_1-16);}.cls-17{fill:url(#Nuovo_campione_sfumatura_1-17);}</style><linearGradient id="Nuovo_campione_sfumatura_1" x1="176.69" y1="149.65" x2="278.75" y2="251.71" gradientUnits="userSpaceOnUse"><stop offset="0" stop-color="#1b1464" stop-opacity="0.7"/><stop offset="0.06" stop-color="#162e6e" stop-opacity="0.72"/><stop offset="0.17" stop-color="#0e5a7f" stop-opacity="0.75"/><stop offset="0.28" stop-color="#087d8c" stop-opacity="0.77"/><stop offset="0.39" stop-color="#049595" stop-opacity="0.79"/><stop offset="0.51" stop-color="#01a49b" stop-opacity="0.8"/><stop offset="0.62" stop-color="#00a99d" stop-opacity="0.8"/><stop offset="1" stop-color="#bef2e1"/></linearGradient><linearGradient id="Nuovo_campione_sfumatura_1-2" x1="-27.82" y1="86.68" x2="188.14" y2="302.64" xlink:href="#Nuovo_campione_sfumatura_1"/><linearGradient id="Nuovo_campione_sfumatura_1-3" x1="91.76" y1="-0.38" x2="165.36" y2="73.23" xlink:href="#Nuovo_campione_sfumatura_1"/><linearGradient id="Nuovo_campione_sfumatura_1-4" x1="91.07" y1="50.06" x2="165.91" y2="124.9" xlink:href="#Nuovo_campione_sfumatura_1"/><linearGradient id="Nuovo_campione_sfumatura_1-5" x1="189.26" y1="35.74" x2="250.02" y2="96.5" xlink:href="#Nuovo_campione_sfumatura_1"/><linearGradient id="Nuovo_campione_sfumatura_1-6" x1="80.85" y1="106.75" x2="116.64" y2="142.53" xlink:href="#Nuovo_campione_sfumatura_1"/><linearGradient id="Nuovo_campione_sfumatura_1-7" x1="77.73" y1="133.73" x2="106.24" y2="162.24" xlink:href="#Nuovo_campione_sfumatura_1"/><linearGradient id="Nuovo_campione_sfumatura_1-8" x1="76.54" y1="180.54" x2="103.9" y2="207.89" xlink:href="#Nuovo_campione_sfumatura_1"/><linearGradient id="Nuovo_campione_sfumatura_1-9" x1="117.54" y1="157.39" x2="144.82" y2="184.67" xlink:href="#Nuovo_campione_sfumatura_1"/><linearGradient id="Nuovo_campione_sfumatura_1-10" x1="137.22" y1="134.57" x2="163.8" y2="161.14" xlink:href="#Nuovo_campione_sfumatura_1"/><linearGradient id="Nuovo_campione_sfumatura_1-11" x1="151.22" y1="111.25" x2="178.01" y2="138.04" xlink:href="#Nuovo_campione_sfumatura_1"/><linearGradient id="Nuovo_campione_sfumatura_1-12" x1="155.63" y1="238.95" x2="181.51" y2="264.83" xlink:href="#Nuovo_campione_sfumatura_1"/><linearGradient id="Nuovo_campione_sfumatura_1-13" x1="75.56" y1="239.01" x2="101.39" y2="264.84" xlink:href="#Nuovo_campione_sfumatura_1"/><linearGradient id="Nuovo_campione_sfumatura_1-14" x1="72.37" y1="161.63" x2="91.22" y2="180.48" xlink:href="#Nuovo_campione_sfumatura_1"/><linearGradient id="Nuovo_campione_sfumatura_1-15" x1="129.63" y1="185.43" x2="147.19" y2="202.99" xlink:href="#Nuovo_campione_sfumatura_1"/><linearGradient id="Nuovo_campione_sfumatura_1-16" x1="200.6" y1="147.58" x2="256.07" y2="203.05" xlink:href="#Nuovo_campione_sfumatura_1"/><linearGradient id="Nuovo_campione_sfumatura_1-17" x1="217.18" y1="164.1" x2="239.25" y2="186.17" xlink:href="#Nuovo_campione_sfumatura_1"/></defs><title>i</title><path class="cls-1" d="M226,297.52c-.27-.07-.53-.17-.8-.22-5.19-1-7.57-3.65-7.85-8.89-.19-3.55-.47-3.89-3.85-4.87a11.26,11.26,0,0,1-7.92-11q-.08-9.6,0-19.2a8.24,8.24,0,0,0-2.13-5.92,10.67,10.67,0,0,1-2.73-7A35,35,0,0,0,198,227.49a28.24,28.24,0,0,0-6-8.9,66,66,0,0,1-12.54-16.12,49.11,49.11,0,0,1-5-13.05,60.32,60.32,0,0,1-1.61-16.18,55.25,55.25,0,0,1,4.7-20,50.41,50.41,0,0,1,11.46-16c8.93-8.35,19.3-13.86,31.51-15.67a54.51,54.51,0,0,1,18.1.69,50.7,50.7,0,0,1,21.39,9.21A71.38,71.38,0,0,1,269,140a47.71,47.71,0,0,1,9.56,15.12c2.95,7.37,4.81,15,4.31,23-.68,10.8-3.44,21-10.08,29.78-2.57,3.4-5.47,6.57-8.36,9.71a33.81,33.81,0,0,0-7.81,12.66,53.86,53.86,0,0,0-1.31,7.77,55.06,55.06,0,0,1-.94,5.77,9.84,9.84,0,0,1-1.89,3.28,8.91,8.91,0,0,0-2.24,5.91c.09,4.11.08,8.24,0,12.35-.06,2.92-.25,5.83-.44,8.73a9.66,9.66,0,0,1-5.37,8.26,22,22,0,0,1-3.72,1.64,3,3,0,0,0-2.17,2.46,28.69,28.69,0,0,0-.47,3.2c-.23,3.68-2.56,5.68-5.59,7.14-.54.26-1.11.45-1.67.67Zm2-54.76h15.83c2.21,0,2.82-.51,3.24-2.69a15.47,15.47,0,0,0,.45-3.08c-.09-6,2-11.35,4.9-16.47,2.56-4.57,6.21-8.3,9.74-12.12,2.83-3,5.63-6.15,7.43-9.94a50.62,50.62,0,0,0,4.2-33.09A41.19,41.19,0,0,0,265.58,148,49.06,49.06,0,0,0,252,135.67,46.59,46.59,0,0,0,237,130a41.45,41.45,0,0,0-14.66-.45c-11.79,1.89-22,6.8-30.1,15.73s-11.42,19.61-11.49,31.47c0,1.91.39,3.82.41,5.73,0,4.94,1.95,9.41,3.84,13.77,2.31,5.34,6.12,9.78,10,14.08a98.52,98.52,0,0,1,6.81,8.19,30,30,0,0,1,5.36,12.19c.59,3.05.82,6.17,1.26,9.25.29,2.05.85,2.57,2.91,2.82a11.63,11.63,0,0,0,1.32,0C217.78,242.77,222.9,242.76,228,242.76Zm-1.42,8.44h0c-3.72,0-7.44,0-11.16,0-1.44,0-1.87.44-1.9,1.86,0,1,0,2,0,3,0,5.2,0,10.4,0,15.6,0,3.37,1.43,4.69,4.8,4.69q9.6,0,19.2,0c3.2,0,4.41-1.23,4.48-4.43,0-.28,0-.56,0-.84q0-7.92,0-15.84a15.54,15.54,0,0,0-.15-2.15c-.24-1.65-1-2.24-2.7-2.09-.92.07-1.84.17-2.75.18C233.16,251.22,229.88,251.2,226.6,251.2Zm1.62,33.13c-2.06,0-2.85.62-2.88,2.32,0,2,.72,2.9,2.48,2.92,2,0,2.67-.62,2.71-2.75C230.56,284.85,230.09,284.35,228.22,284.33Z"/><path class="cls-2" d="M25.36,34.72c.17-.41.36-.8.5-1.22a3,3,0,0,1,2.76-2.14,37.68,37.68,0,0,1,3.83-.24q13.8,0,27.59,0a12.63,12.63,0,0,1,2.38.23,3.75,3.75,0,0,1,3.23,3.51,4,4,0,0,1-3.09,3.8,9.26,9.26,0,0,1-1.9.16H35.58c-1.95,0-2.27.3-2.29,2.18-.07,7.8-.16,15.59-.19,23.39s0,15.36,0,23c0,4.16.19,8.31.18,12.47,0,9.79-.14,19.59-.17,29.38,0,3.24.18,6.47.17,9.71,0,9.87-.15,19.75-.17,29.62,0,4.52.18,9,.17,13.55,0,21-.15,41.9-.17,62.85,0,11,.12,22,.18,33,0,2.76.39,3.14,3.23,3.14q18.9,0,37.8,0l124.41,0a15.65,15.65,0,0,1,1.68,0,3.61,3.61,0,0,1,3.51,3.45c.14,2.34-.74,3.64-3,4a31.84,31.84,0,0,1-5.25.4L63,289.13c-10,0-20.08,0-30.12,0-1.27,0-2.55-.18-3.82-.28-2.21-.18-3.11-1.69-3.67-3.57Z"/><path class="cls-3" d="M110.8,4.24a17.31,17.31,0,0,0,1.89.2q26.33,0,52.67,0c5.36,0,10.52,3.37,11,10,.07,1,.21,1.91.2,2.87a1.63,1.63,0,0,0,1.37,1.82c1.17.26,2.36.41,3.53.63,2.4.45,3.23,1.38,3.26,3.83,0,3.92,0,7.84,0,11.76q0,6.3,0,12.6c0,7.89-5,13-12.88,13-29.16,0-58.31.08-87.47,0-6.32,0-10.93-4.44-12-10.44a20.61,20.61,0,0,1-.25-3.34q0-10,0-20c0-1.31.11-2.63.21-3.94.19-2.34,1.34-3.41,3.71-3.54a20.74,20.74,0,0,0,2.5-.24c1.56-.26,2-.77,2-2.33a23.29,23.29,0,0,1,.13-3.35A10.79,10.79,0,0,1,89.27,4.7c.62-.13,1.23-.3,1.85-.46ZM128.61,26.8v0H83.25c-3.63,0-3.67,0-3.63,3.57q.09,9.36.24,18.71a4.9,4.9,0,0,0,5,4.43c.76-.06,1.52-.1,2.27-.1h82.56c1,0,1.92,0,2.88,0,2.69-.14,4.58-1.71,4.65-4.38.2-6.87.19-13.75.23-20.63a1.48,1.48,0,0,0-1.59-1.58c-.64,0-1.28,0-1.92,0Zm.71-7.46v0h36.57a4,4,0,0,0,1.43-.06,3.32,3.32,0,0,0,1.63-1c1.27-2-.67-6-3-6.29a32.31,32.31,0,0,0-4.06-.26q-34.89.09-69.78.22h-.36a3.45,3.45,0,0,0-3.67,3.47,15.45,15.45,0,0,0,0,1.8,2.17,2.17,0,0,0,2.58,2.3c.59,0,1.19-.15,1.78-.15Z"/><path class="cls-4" d="M128.14,74.8h58.3c.88,0,1.75.14,2.63.16,2.84,0,3.78,2,3.8,4.4q.06,7.14,0,14.28a21.06,21.06,0,0,1-.34,3.8,3,3,0,0,1-2.79,2.57,17.26,17.26,0,0,1-2.26.21q-58.3,0-116.61,0a20.29,20.29,0,0,1-4.55-.74,2.72,2.72,0,0,1-2.08-2.9c0-6-.08-12.07,0-18.11,0-2.39,1.61-3.66,4.28-3.7,3.56,0,7.11,0,10.67,0h48.95Zm-.22,17.49v0h52.91a17.22,17.22,0,0,0,2.26-.19,2,2,0,0,0,1.87-2c.09-1.67.22-3.35.21-5,0-2-.46-2.38-2.44-2.38l-106.65,0a14.1,14.1,0,0,0-2.14.21,1.89,1.89,0,0,0-1.7,1.89,55.23,55.23,0,0,0-.07,5.61c.09,1.65.39,1.82,2.13,1.82Z"/><path class="cls-5" d="M231.76,76q0,17.76,0,35.51a13,13,0,0,1-.3,2.85,3.77,3.77,0,0,1-4.07,2.82,3.44,3.44,0,0,1-3.32-3.67c-.07-5.36-.18-10.71-.2-16.07,0-2.91.2-5.83.19-8.74,0-9.55-.16-19.11-.21-28.66,0-6.15,0-12.3,0-18.45,0-2.16-.57-2.74-2.79-2.74-8.2,0-16.4,0-24.6,0a8.43,8.43,0,0,1-2.13-.23,3.42,3.42,0,0,1-2.67-4,3.41,3.41,0,0,1,3.14-3.23,23.48,23.48,0,0,1,3.34-.26q12.78,0,25.56,0a41,41,0,0,1,4.42.27,3.52,3.52,0,0,1,3.46,3.78c-.07,13.59,0,27.18,0,40.78Z"/><path class="cls-6" d="M98.44,128.59H69.77a10.13,10.13,0,0,1-2.26-.22A3.42,3.42,0,0,1,64.67,125c-.07-2.07.66-3.33,2.53-3.84a14.52,14.52,0,0,1,3.78-.49q22.49,0,45,0c4.47,0,9,.14,13.42.23,2,0,3.26,1.34,3.46,3.57a3.46,3.46,0,0,1-2.88,3.83,17.08,17.08,0,0,1-2.85.27q-14.34,0-28.67,0Z"/><path class="cls-7" d="M92.33,151.85c-6.83,0-13.66,0-20.5,0a33.11,33.11,0,0,1-3.58-.24,3.61,3.61,0,0,1-3.32-2.68c-.5-1.66.22-2.78,1.49-3.83A5.26,5.26,0,0,1,70,143.92q21.77,0,43.52,0a10.23,10.23,0,0,1,3.38.64c1.79.65,2,2.23,1.87,3.88a2.9,2.9,0,0,1-2.12,2.88,10.08,10.08,0,0,1-2.93.47c-7.12,0-14.23,0-21.35,0Z"/><path class="cls-8" d="M90.6,190.24c6.64,0,13.28,0,19.92,0a10,10,0,0,1,2.25.25c2.26.53,3.2,1.84,3.07,4.16-.11,1.89-1.3,3-3.5,3.26-1.31.13-2.63.23-3.94.23q-19.08,0-38.16,0a11.43,11.43,0,0,1-3.18-.46c-1.9-.56-2.55-1.81-2.38-4.14a3.28,3.28,0,0,1,2.9-3.05,18.91,18.91,0,0,1,3.1-.28c6.64,0,13.28,0,19.92,0Z"/><path class="cls-9" d="M131.15,175.13c-6.12,0-12.23,0-18.35,0a30.4,30.4,0,0,1-3.7-.27,3.48,3.48,0,0,1-3.39-3.65c0-2.36.8-3.41,3.19-3.84a14,14,0,0,1,2.5-.2q18.48,0,36.95.05c1.67,0,3.35.16,5,.22a3.1,3.1,0,0,1,3.23,2.62c.38,2.2-.34,3.89-2.13,4.41a16.55,16.55,0,0,1-4.25.63c-6.35.06-12.71,0-19.07,0Z"/><path class="cls-10" d="M150.41,143.92c6.48,0,13,0,19.42,0a10.42,10.42,0,0,1,2.83.42c2.09.58,2.74,1.53,2.7,3.64a3.38,3.38,0,0,1-2.81,3.51,10,10,0,0,1-2.36.31q-18.94,0-37.89,0a33.11,33.11,0,0,1-3.58-.24,3.5,3.5,0,0,1-3.07-3.32,3.56,3.56,0,0,1,2.73-4.07,12,12,0,0,1,2.73-.3c6.43,0,12.87,0,19.3,0Z"/><path class="cls-11" d="M164.47,128.58c-6.51,0-13,0-19.54,0a10.5,10.5,0,0,1-3.38-.6c-1.52-.55-2.14-1.91-2-3.71s1-2.89,2.66-3.1a68.5,68.5,0,0,1,7.15-.49c2.4,0,4.79.18,7.19.17,9,0,18-.13,27-.17a19.24,19.24,0,0,1,3.21.28,3.51,3.51,0,0,1,2.94,3.69,3.29,3.29,0,0,1-2.82,3.61,16.54,16.54,0,0,1-3,.31c-6.48,0-13,0-19.43,0Z"/><path class="cls-12" d="M167.58,256c-5.51,0-11,.06-16.55,0a18.28,18.28,0,0,1-4.56-.81,3.35,3.35,0,0,1-2.07-3.89,3.68,3.68,0,0,1,3.38-3.2c.55,0,1.12,0,1.68,0,12.91,0,25.82,0,38.73.07a6.92,6.92,0,0,1,3.26.91c1.25.74,1.6,2.74,1,4.35a3.65,3.65,0,0,1-3.57,2.37c-2.55.14-5.1.23-7.66.25-4.55,0-9.11,0-13.67,0Z"/><path class="cls-13" d="M88.23,248.07c6.28,0,12.56,0,18.84,0a13.54,13.54,0,0,1,3,.36,3.33,3.33,0,0,1,2.68,3.38,3.25,3.25,0,0,1-2.4,3.46,16.06,16.06,0,0,1-4.11.68q-17.88.07-35.75,0a12.91,12.91,0,0,1-3.65-.55c-1.77-.52-2.48-1.81-2.35-3.82a3.31,3.31,0,0,1,2.81-3.38,9.73,9.73,0,0,1,2-.18h19Z"/><path class="cls-14" d="M82,167.19c4.28,0,8.56,0,12.84,0,3.08,0,4.73,2.14,4,5.09-.43,1.67-1.75,2.32-3.29,2.54a28.63,28.63,0,0,1-3.82.28q-9.65,0-19.31,0c-1.32,0-2.63-.11-3.94-.23-2.51-.23-3.78-1.61-3.72-4a3.66,3.66,0,0,1,4-3.75c4.44,0,8.88,0,13.32,0Z"/><path class="cls-15" d="M138.31,198.18H127.64a10.72,10.72,0,0,1-1.79-.15c-2.24-.45-3.13-1.61-3.1-4,0-2.16,1-3.26,3.17-3.65a11,11,0,0,1,1.9-.17q10.5,0,21,0a12.21,12.21,0,0,1,2.26.24,3.46,3.46,0,0,1,3.18,3.7c0,2.13-1,3.35-3.24,3.77a12.35,12.35,0,0,1-2,.2c-3.56,0-7.11,0-10.67,0Z"/><path class="cls-16" d="M199,163c-.74-1.44-1.48-2.72-2.08-4.06-1.64-3.68-1.13-6.42,1.68-9.3,1.43-1.46,2.88-2.89,4.33-4.32a7.44,7.44,0,0,1,9.23-1.5c1.32.65,2.58,1.41,4,2.17.44-1.34.77-2.56,1.23-3.73a9.32,9.32,0,0,1,9.18-6.26,29.93,29.93,0,0,1,6.42.51,8.33,8.33,0,0,1,6.51,6.2c1.12,3.82.49,3.45,4.1,1.66.68-.33,1.36-.67,2.05-1a5.68,5.68,0,0,1,6.76,1.14c2.52,2.38,4.94,4.88,7.23,7.48,1.66,1.88,1.56,4.12.52,6.31-.61,1.26-1.27,2.5-2,3.7-.49.82-.24,1.26.54,1.57,1.16.44,2.31.89,3.49,1.29a7.93,7.93,0,0,1,5.23,7.26c0,2.2,0,4.4-.06,6.6a8,8,0,0,1-6.55,7.66c-3.05.52-3.23.94-2,3.7a37.43,37.43,0,0,1,1.54,4.27,4.92,4.92,0,0,1-.81,4.54,28.65,28.65,0,0,1-7.5,7.51c-2.2,1.49-4.49,1.07-6.76.17-1-.39-2-.9-3-1.32-1.32-.55-1.88-.32-2.43,1-.38.92-.65,1.89-1,2.82-1.31,3.52-3.39,5-7.13,5.15a73.3,73.3,0,0,1-7.56,0,6.29,6.29,0,0,1-5.59-3.55c-.66-1.41-1.14-2.9-1.72-4.35-.51-1.28-1-1.5-2.32-1-1.11.46-2.18,1-3.27,1.5-3,1.35-5.2,1-7.54-1.34-1.94-1.9-3.83-3.86-5.78-5.76a5.86,5.86,0,0,1-1.47-6.8c.48-1.23,1.07-2.41,1.62-3.61.84-1.85.58-2.42-1.35-2.92-.43-.11-.85-.24-1.28-.32-4.41-.82-6.22-4.39-6.22-8,0-2.55.11-5.11.23-7.66a5.77,5.77,0,0,1,3.92-5.38C195.17,164.39,197,163.75,199,163Zm6.16,31.16a4.41,4.41,0,0,0,2.2,4c1.3.75,2.44.35,3.59-.35,1.57-1,3.16-1.89,4.75-2.8,4-2.27,6.12-1.4,7.37,3,.56,2,1,4,1.62,5.9a2.89,2.89,0,0,0,1.18,1.69c2.75,1.18,5.25,1.24,6.24-2.47.58-2.16,1.16-4.32,1.83-6.46.79-2.51,2.75-3.39,5.18-2.4.51.21,1,.52,1.48.77,2.2,1.12,4.39,2.27,6.62,3.33a1.58,1.58,0,0,0,1.36,0,13.88,13.88,0,0,0,2.41-2.12,2.35,2.35,0,0,0,.13-3.08c-1.24-2-2.43-4-3.52-6.13-1.49-2.81-.48-5.29,2.54-6.26,1.9-.61,3.85-1.06,5.78-1.57a4.25,4.25,0,0,0,3.48-4.16c0-1.67-1.18-2.83-3.37-3.5-2.4-.74-4.82-1.46-7.14-2.4-1.9-.78-2.39-2.16-1.81-4.13a6.71,6.71,0,0,1,.59-1.44c1.17-2.1,2.34-4.18,3.55-6.26a2.41,2.41,0,0,0-.21-3.18,4.07,4.07,0,0,0-5.45-1.19c-1.86.93-3.62,2-5.49,3-3,1.48-5.17.56-6.31-2.62-.12-.33-.21-.68-.31-1-.57-2-1.05-4.11-1.74-6.1a2.86,2.86,0,0,0-1.54-1.59,9.46,9.46,0,0,0-2.83-.15c-1.5,0-2.19.85-2.56,2.2-.62,2.28-1.26,4.55-2,6.79-1,3-3,3.91-5.87,2.55-1.77-.84-3.47-1.81-5.17-2.78-3.07-1.76-3.28-1.75-5.68.81-1.27,1.35-1.36,2.14-.43,3.75,1.09,1.87,2.23,3.7,3.22,5.61,1.65,3.17.67,5.57-2.71,6.64-2,.66-4.17,1.13-6.24,1.72a3.2,3.2,0,0,0-2.64,3.71,4,4,0,0,0,3.1,3.68c2.07.62,4.15,1.18,6.2,1.85,3,1,3.91,3.1,2.43,6-.94,1.84-2.09,3.59-3.08,5.41A13.87,13.87,0,0,0,205.11,194.16Z"/><path class="cls-17" d="M212.75,175.14c0-8.22,5.92-15.41,15.88-15.56,8.62-.12,15.24,7.84,15.15,15.34-.1,9-6.82,15.84-15.66,15.82A15.46,15.46,0,0,1,212.75,175.14Zm15.57-7.21a7.3,7.3,0,0,0-7.32,7.31,7.29,7.29,0,0,0,14.58,0A7.31,7.31,0,0,0,228.32,167.93Z"/></svg>