<svg id="Livello_1" data-name="Livello 1" xmlns="http://www.w3.org/2000/svg" xmlns:xlink="http://www.w3.org/1999/xlink" viewBox="0 0 1366 768"><defs><style>.cls-1{fill:#87e8d5;}.cls-2{opacity:0.4;fill:url(#Sfumatura_senza_nome_33);}</style><linearGradient id="Sfumatura_senza_nome_33" x1="-169" y1="205.15" x2="1453.29" y2="205.15" gradientUnits="userSpaceOnUse"><stop offset="0" stop-color="#0082aa"/><stop offset="0.66" stop-color="#00bca5"/><stop offset="0.78" stop-color="#00cca5"/><stop offset="1" stop-color="#00f1a5"/></linearGradient></defs><title>background</title><path class="cls-1" d="M393.8,315.77C234.86,274.82,92.48,332.41,0,388.92V768H1366V309.85c-139.43,13.64-238.44,57.61-352.46,84.77C834.88,437.18,670.73,387.11,393.8,315.77Z"/><path class="cls-1" d="M0,0V388.92c92.48-56.51,234.86-114.1,393.8-73.15,276.93,71.34,441.08,121.41,619.74,78.85,114-27.16,213-71.13,352.46-84.77V0Z"/><path class="cls-2" d="M0,0V388.92c92.48-56.51,234.86-114.1,393.8-73.15,276.93,71.34,441.08,121.41,619.74,78.85,114-27.16,213-71.13,352.46-84.77V0Z"/></svg>