<svg id="Livello_1" data-name="Livello 1" xmlns="http://www.w3.org/2000/svg" viewBox="0 0 300 300"><title>black-icon</title><path d="M150,3C67.16,3,0,70.42,0,153.6A150.58,150.58,0,0,0,102.59,296.49c7.5,1.41,10.24-3.27,10.24-7.26l-.21-25.61c-41.73,9.1-50.53-20.19-50.53-20.19-6.82-17.39-16.65-22-16.65-22-13.62-9.35,1-9.16,1-9.16,15.05,1.07,23,15.52,23,15.52,13.39,23,35.11,16.37,43.66,12.51,1.36-9.73,5.24-16.37,9.52-20.15-33.3-3.81-68.32-16.72-68.32-74.43a58.32,58.32,0,0,1,15.44-40.41c-1.55-3.81-6.69-19.12,1.46-39.85,0,0,12.6-4,41.25,15.43a141.66,141.66,0,0,1,75.12,0c28.63-19.48,41.2-15.43,41.2-15.43,8.18,20.73,3,36,1.49,39.85,9.62,10.53,15.42,24,15.42,40.41,0,57.85-35.07,70.59-68.48,74.31,5.38,4.65,10.18,13.84,10.18,27.89l-.19,41.32c0,4,2.7,8.71,10.31,7.23A150.54,150.54,0,0,0,300,153.6C300,70.42,232.84,3,150,3"/></svg>