<svg id="Livello_1" data-name="Livello 1" xmlns="http://www.w3.org/2000/svg" viewBox="0 0 300 300"><title>black-icon</title><path d="M55.2,262.3l4.07-16.46q8.25-32,16.58-64c.55-2.07,0-3.2-1.57-4.5L15.8,129.52c-3.9-3.18-7-6.75-7.66-12-1.23-9.36,5.55-18.1,14.94-18.7q36.71-2.4,73.43-4.57c7.9-.47,7.93-.34,10.8-7.68q13.14-33.54,26.24-67C136.47,12.06,142,8.05,149.3,8.05s12.9,4.1,15.8,11.44l28.42,72c.83,2.13,1.94,2.73,4.1,2.85q39.12,2.16,78.23,4.5A15.85,15.85,0,0,1,289.74,110c2.16,7,.67,13.12-4.93,17.85l-32.12,26.63L224,178.11a3.5,3.5,0,0,0-1.32,4.28q9.82,37.14,19.54,74.3c2.85,10.85-3.1,20.15-14,21.72-4.2.6-7.93-.78-11.45-3L151.6,234a4,4,0,0,0-5.18,0q-32.29,20.81-64.73,41.52c-8.75,5.6-19.25,3.13-23.95-5.7-1.25-2.3-1.74-5.1-2.54-7.53ZM40,120.2,43.2,123q27.13,22.24,54.3,44.45c2.9,2.37,3.84,4.9,2.86,8.6l-13.6,52.6-5.14,20.22,3.17-1.94q29.88-19.15,59.74-38.35a7.38,7.38,0,0,1,8.84-.08q29.07,18.6,58.23,37l5.15,3.28c-.25-1.4-.34-2.2-.55-3l-18.15-69.13c-1-3.67-.12-6.2,2.8-8.6q27.26-22.32,54.36-44.84c1-.84,2-1.76,3.36-3L239.87,119l-55.7-3.2c-3.87-.2-5.9-1.9-7.27-5.37q-13-33.28-26.25-66.5c-.34-.86-.74-1.7-1.34-3.1l-1.68,4.06L122.4,109.67c-1.6,4.2-4.2,5.67-8.45,5.9l-58.5,3.5L40,120.21Z"/></svg>