<svg id="Livello_1" data-name="Livello 1" xmlns="http://www.w3.org/2000/svg" viewBox="0 0 300 300"><title>black-icon</title><path d="M95.44,247.38V119.87H54.52V247.38ZM76.51,100.57c13.63,0,22.13-9.77,22.13-22-.22-12.45-8.5-22-21.91-22s-22.13,9.53-22.13,22c0,12.22,8.49,22,21.61,22Z"/><path d="M198.13,117c-21.69,0-31,12.22-37,20.72V119.94h-41V247.38h41V174.79c0-3.72.29-7.45,1.41-10.06,3-7.45,9.69-15.13,21-15.13,14.83,0,20.79,11.4,20.79,28.1v69.68h41V172.93C245.38,134.7,225.11,117,198.13,117Z"/><path d="M270.12,8.9H31.34C18.3,8.9,6.9,18.29,6.9,31.18v239.3c0,13,11.4,24.52,24.44,24.52H270.05c13.11,0,22.95-11.63,22.95-24.52V31.18C293.07,18.29,283.16,8.9,270.12,8.9Zm-2.38,262.33H33.06a2.28,2.28,0,0,1-2.31-2.31V34.24a1.54,1.54,0,0,1,1.49-1.49h235.5a1.6,1.6,0,0,1,1.49,1.49v235.5A1.6,1.6,0,0,1,267.74,271.23Z"/></svg>