<svg id="Livello_1" data-name="Livello 1" xmlns="http://www.w3.org/2000/svg" viewBox="0 0 300 300"><title>black-icon</title><path d="M214.4,150.78V260.25c0,14.06-8.67,22.7-22.78,22.7h-143c-13.9,0-22.6-8.7-22.6-22.56V40.56C26,26.7,34.72,18,48.64,18h143.6c13.25,0,22.14,8.85,22.15,22.12Q214.42,95.45,214.4,150.78ZM37.78,59.22V259.65c0,8.33,3.2,11.52,11.57,11.52H191.5c7.75,0,11.12-3.36,11.12-11.08V40.84c0-7.7-3.38-11-11.15-11H51.67c-1.76,0-3.53-.07-5.3,0-4,.27-7.57,2.87-8.16,6.83-.53,3.5-.1,7.1-.1,10.8h114a31.34,31.34,0,0,1,4.11.09,5.85,5.85,0,0,1-.07,11.62,24.05,24.05,0,0,1-2.94.07H37.78Zm188.4,118.62.1-81.22a14.58,14.58,0,0,1,1.89-6.88c5.08-8.84,10.4-17.52,15.68-26.25,3.46-5.73,8.32-5.75,11.76,0l16,26.76A12.08,12.08,0,0,1,273.26,96q.14,81.49.06,163a23.49,23.49,0,0,1-46,7,30.88,30.88,0,0,1-1-8.12q-.19-40-.13-80.06ZM238,118.24v140.4c0,5.76,3,10.17,7.94,11.85,8,2.77,15.58-3.13,15.6-12.28V120.79c0-.84-.1-1.7-.16-2.55Zm23.27-12c.92-6,.26-11.37-3.4-16.32-3-4-5.3-8.58-8.12-13.25-3.08,5.12-5.55,10.06-8.8,14.4-3.57,4.74-3,9.8-2.83,15.16Zm-158.7,62a26.49,26.49,0,1,1-26.4-26.58h.16A26.55,26.55,0,0,1,102.53,168.24Zm-11.78,0a14.71,14.71,0,1,0-14.83,14.59h.16a14.86,14.86,0,0,0,14.67-14.57ZM75.87,206.4A26.49,26.49,0,1,1,49.53,233v-.14A26.58,26.58,0,0,1,75.87,206.4Zm0,11.78a14.71,14.71,0,1,0,14.81,14.61v-.16a14.85,14.85,0,0,0-14.74-14.45Zm76.47-88.3H121.48c-4.48,0-7.2-2.3-7.15-6s2.7-5.8,7-5.8h62.33c4.47,0,7.2,2.3,7.14,6s-2.72,5.78-7,5.8Zm.1,64.76H120.7c-4.85,0-7.77-4.37-5.78-8.4a5.7,5.7,0,0,1,5.44-3.35h64.38a5.79,5.79,0,0,1,6.07,5.51c0,.11,0,.21,0,.32,0,3.38-2.56,5.87-6.34,5.9Z"/><path d="M152.28,259.4H121.4c-4.33,0-7-2.2-7.08-5.75s2.65-6,7.1-6h62.32c4.42,0,7.17,2.4,7.08,6s-2.77,5.72-7.1,5.73ZM49.55,103.46c0-14.28,11.68-26.4,25.7-26.56,3.92,0,6.67,2.37,6.67,5.85s-2.42,5.63-6.35,5.92c-8.44.63-14.52,7.2-14.22,15.35.3,7.58,6.3,13.47,14.34,14.07,5.14.38,7.88,5.07,5.26,9.06-1.37,2.1-3.4,2.76-5.82,2.7-13.9-.3-25.52-12.23-25.57-26.4Z"/><path d="M146.6,112.2H121.32c-4.3,0-7-2.27-7-5.83s2.65-5.93,6.9-5.93h50.84c4.3,0,7,2.26,7,5.83s-2.65,5.92-6.9,5.93Zm.07,64.77H121.39c-4.32,0-7-2.2-7.06-5.76s2.66-6,7.1-6H172c4.32,0,7,2.2,7.06,5.76s-2.66,6-7.1,6Z"/><path d="M146.72,241.73H121.45c-4.47,0-7.2-2.34-7.12-6s2.73-5.77,7.06-5.77h50.55c4.46,0,7.2,2.34,7.1,6s-2.73,5.76-7,5.76q-12.65,0-25.28,0ZM137.87,94.56H121.13c-4.2,0-6.9-2.44-6.8-6s2.67-5.74,6.77-5.76h33.48c4.2,0,6.9,2.43,6.8,6s-2.68,5.75-6.76,5.75H137.87Z"/><path d="M137.87,147.56h16.74c4.18,0,6.88,2.45,6.8,6s-2.7,5.73-6.78,5.74h-33.5c-4.08,0-6.7-2.27-6.8-5.73s2.6-6,6.78-6h16.76Zm-.32,76.5H121.1c-4.1,0-6.7-2.27-6.77-5.75s2.6-6,6.8-6h33.48c4.08,0,6.7,2.28,6.77,5.75s-2.62,6-6.8,6ZM79.8,98.67l12.6-8.36c3.7-2.44,7-2.08,9,.9s1.2,6.37-2.6,8.93q-7.8,5.27-15.66,10.43c-3.7,2.43-6,2.2-9.16-.86l-5-5c-2.46-2.7-2.44-6.1-.07-8.42s5.68-2.27,8.44.17c.88.7,1.64,1.44,2.46,2.2ZM176,59.2h-2.93A5.86,5.86,0,0,1,173,47.48h0a57.27,57.27,0,0,1,5.86,0,5.91,5.91,0,0,1,6.06,5.83c.06,3.27-2.47,5.73-6,5.9C178,59.24,177,59.2,176,59.2Z"/></svg>