<svg id="Livello_1" data-name="Livello 1" xmlns="http://www.w3.org/2000/svg" viewBox="0 0 300 300"><defs><style>.cls-1{fill:#fff;}</style></defs><title>black-icon</title><path d="M208.23,262.38c0-3.48.11-6.95-.07-10.41a5.38,5.38,0,0,0-1.34-3.29,12,12,0,0,1-3.5-8.48c-.27-8.41-2.94-15.89-9.15-21.84a60.54,60.54,0,0,1-13.67-18.5,54.2,54.2,0,0,1-4.26-32.26,52.57,52.57,0,0,1,22-35c11.17-8,23.77-11.72,37.44-10.52A52.12,52.12,0,0,1,272.8,142c14.59,18,16.63,41.9,5.29,62-2.86,5.06-7,9.5-11,13.78-4.81,5.1-8.18,10.76-9.27,17.69a31.32,31.32,0,0,0-.36,4.94,11.72,11.72,0,0,1-3.32,8.09,6.19,6.19,0,0,0-1.52,3.66c-.15,6.23-.06,12.44-.07,18.67,0,8.06-2.63,11.45-10.32,14a3.26,3.26,0,0,0-1.4,2.45c-.29,3-.41,6-2.92,8.18-3.71,3.24-8.08,3.06-12.27,1.73-3.86-1.22-5.67-4.49-5.51-8.48.1-2.75-.72-3.93-3.51-4.59-5.11-1.23-8.17-5.73-8.33-11.3-.08-3.48,0-7,0-10.41Zm22.07-18.86h15.15c3.65,0,4.08-.4,4.54-4.15.24-2.05.18-4.09.54-6.13,1.72-9.38,6.89-16.7,13.59-23.27,15.12-14.79,18-39.48,6.95-57.52-12.36-20.27-36.2-28.35-58.18-19.42-15.79,6.44-26,18.14-29.07,35-3.06,16.5,1.56,31.1,13.77,42.91,8.17,7.93,13.08,17.23,13.1,28.83,0,2.83,1.09,3.73,4,3.75l15.63,0Zm-.12,7.9H218.12c-1.35,0-2.28.31-2.28,1.94l.06,19.6c0,2.51,1.69,4.09,4.29,4.09q10.14.12,20.3,0c2.86,0,4.19-1.43,4.19-4.27V253.87c0-1.83-.7-2.53-2.51-2.5-4,.08-8,0-12,0Zm.47,33.31c-2-.31-3.14.15-3.06,2.56.06,2,.45,3.06,2.75,3.06,2.13,0,3-.71,2.94-2.89,0-1.91-.37-3.17-2.66-2.72ZM28,160.51V38c0-5.11,1-6.13,6-6.13h30C66.38,32,68,33.56,68,35.51A3.83,3.83,0,0,1,64,39.12H39c-3.35,0-3.37,0-3.37,3.47V277.7c0,4,0,4.09,4,4.09H200.12a15.75,15.75,0,0,1,3.07.13,3.49,3.49,0,0,1,3.19,3.75,3.45,3.45,0,0,1-3.13,3.56,14,14,0,0,1-2.59.15H34.16c-4.95,0-6.13-1.23-6.13-6.13Q28,221.89,28,160.51Zm102.7-99.19c-14.09,0-28.23-.18-42.33.08C81.51,61.5,74.8,57,74.88,48V25.51c0-4.21,1.12-5.42,5.34-5.35,2.41,0,3.3-.88,3.07-3.21-.67-7.22,5.2-12,12.09-11.95l71.88.08c7.15,0,11.52,4.33,11.63,11.42.06,3.55.06,3.55,3.55,3.64s4.83,1.29,4.83,4.91V48.46c-.1,7.81-5.28,12.83-13.28,12.83q-21.65.1-43.28.05Zm.36-34.13H85c-2.92,0-3.06.15-3.06,3.07v18c0,4,2,6,6,6h86c4.27,0,6.21-2,6.24-6.24V30.49c0-3.23-.1-3.3-3.33-3.3Zm0-7.07h38.7c1.55,0,2.21-.67,2.12-2.35-.24-4.67-1.15-5.62-5.86-5.62H96.09a17.35,17.35,0,0,0-2.6.11C91,12.7,90.12,14.49,90.33,18c.14,2.65,2,2.14,3.59,2.14h37.15ZM131,100.63H72.85c-4.83,0-6-1.15-6.07-6v-14c.07-4,1.33-5.26,5.3-5.26H190c4.08,0,5.31,1.28,5.35,5.44v14c0,4.65-1.26,5.77-5.78,5.77H131ZM131,93h50.34c6.51,0,6.51,0,6.46-6.48,0-3.47,0-3.47-3.58-3.47H81c-6.62,0-6.62,0-6.59,6.64,0,3.32,0,3.32,3.23,3.32ZM234.15,74.89v36.65a18.7,18.7,0,0,1-.09,2.36,3.8,3.8,0,0,1-3.92,3.62,3.57,3.57,0,0,1-3.53-3.62,1.62,1.62,0,0,1,0-.31l-.06-26.72V42.43c0-3.14-.1-3.23-3.14-3.23H199.79A13.26,13.26,0,0,1,197.2,39a3.58,3.58,0,0,1,.16-7.06,12,12,0,0,1,1.89-.09H228.8c4.09,0,5.34,1.23,5.35,5.42V74.89ZM101.44,121.4h28.1a16.88,16.88,0,0,1,2.36.07,3.51,3.51,0,0,1,3.35,3.62,3.41,3.41,0,0,1-3,3.67,14.06,14.06,0,0,1-2.82.22H72.24c-3.22-.08-5-1.46-4.92-3.86s1.87-3.72,5-3.73Zm-7.15,30.73c-7.41,0-14.82,0-22.23,0a5.49,5.49,0,0,1-3.46-1,4,4,0,0,1-1.12-3.28c.35-1.16,1.63-2.1,2.68-2.93.41-.33,1.22-.19,1.84-.19h44.7c2.86,0,4.35,1.17,4.53,3.39.21,2.59-1.28,4.09-4.25,4.09-7.58.06-15.14,0-22.7,0ZM93,190.94H113a9.58,9.58,0,0,1,2.56.23,3.53,3.53,0,0,1,2.76,3.67,3.22,3.22,0,0,1-2.73,3.36,13.64,13.64,0,0,1-3.06.31H73.1a14,14,0,0,1-2.58-.18c-2-.39-3.31-1.6-3.23-3.72s1.43-3.25,3.47-3.57a17.13,17.13,0,0,1,2.58-.1Zm40.49-15.58H113.82a10.62,10.62,0,0,1-2.58-.19,3.54,3.54,0,0,1-2.88-3.58,3.25,3.25,0,0,1,2.82-3.53,14.36,14.36,0,0,1,3.06-.29h39a15.08,15.08,0,0,1,3.07.31,3.22,3.22,0,0,1,2.78,3.33,3.45,3.45,0,0,1-2.71,3.69,9.82,9.82,0,0,1-2.81.26H133.45Zm33.84-54h19.42a9.86,9.86,0,0,1,2.81.26,3.41,3.41,0,0,1,2.61,3.52,3.28,3.28,0,0,1-2.64,3.45,14.5,14.5,0,0,1-3.28.34H147.92c-3.94,0-5.67-1.18-5.66-3.78s1.88-3.78,5.69-3.78Zm-14.23,30.75H134a11.73,11.73,0,0,1-2.58-.13,3.56,3.56,0,0,1-3.07-3.64,3.61,3.61,0,0,1,3.07-3.63,9.34,9.34,0,0,1,2.11-.11h40.39c2.41.16,4,1.7,4,3.78s-1.57,3.66-4.09,3.7H153Zm18.23,96.51H189.5a14.06,14.06,0,0,1,2.82.22,3.34,3.34,0,0,1,2.83,3.32,3.44,3.44,0,0,1-2.4,3.67,7,7,0,0,1-2.54.36H151.9c-2.8,0-4.37-1-4.75-3-.53-2.71,1.23-4.6,4.5-4.6h19.62Zm-80.43,7.63H72.19a8.35,8.35,0,0,1-3-.48,3.38,3.38,0,0,1-2-3.84A3.21,3.21,0,0,1,70,248.89a12.47,12.47,0,0,1,2.59-.21h36.84c4,0,5.66,1.13,5.72,3.72s-1.71,3.89-5.77,3.89H90.94Zm-6.64-80.91H72c-2.91,0-4.51-1.32-4.59-3.64s1.58-3.89,4.62-3.92q12.4-.06,24.82,0c3.07,0,4.67,1.48,4.6,3.89s-1.77,3.64-4.83,3.67H84.22ZM141,198.52H129.93c-3.07,0-4.63-1.43-4.58-3.89S127,191,129.89,191q11.09-.06,22.2,0c3,0,4.64,1.48,4.6,3.88s-1.64,3.64-4.56,3.68H141Z"/><path class="cls-1" d="M220,286.26c-2.25,0-2.63-1.05-2.7-3-.1-2.34,1.06-2.8,3-2.5"/><path d="M201.85,164.89l-1.92-3.53c-2-3.65-1.67-6.68,1.14-9.65L206,146.9a7,7,0,0,1,9-.9l4,2.13c1-6.9,4.38-10.42,11.74-10.33,7.15.08,11.14,2.81,11.92,10.25,4-1.56,7.37-5.09,11.2-2.33a36.89,36.89,0,0,1,8.3,8.29c2.74,3.82-.5,7.26-2.27,10.94l4,1.31a8,8,0,0,1,6.05,8v4.21c.3,5.13-2.42,8.95-7.24,9.72-2.78.46-2.85,1-1.45,3.53,2.82,5.06,2.48,7.6-1.57,11.73L258,205.05c-5,5-6.65,5.24-12.87,1.94-1.77-.93-2.48-.43-3,1.33-2,6.52-3.63,7.68-10.35,7.68H228.3c-4.67-.08-7.33-2.28-8.38-6.83-.74-3.19-1-3.34-3.73-1.83-5,2.79-7.47,2.46-11.51-1.52l-2.05-2c-4.67-4.67-5-6.72-1.8-12.53,1-1.8.73-2.85-1.33-3.14-5.4-.74-8-4.25-7.58-10.13V175.6c0-6.22,1.34-8,7.36-9.82.69-.19,1.42-.46,2.57-.88Zm52.68-7c-.07-2.65-4-4.9-6-3.76s-3.76,2.28-5.69,3.27c-3.23,1.55-5.5.57-6.54-2.79-.68-2.16-1.25-4.38-1.74-6.61-.44-1.93-1.75-2.16-3.42-2.11s-3.42-.23-3.94,2.07q-.74,3.21-1.69,6.35c-1.14,3.8-3.48,4.74-7.06,2.85a62.12,62.12,0,0,1-5.45-3.2c-1.75-1.16-2.89-.19-4.07,1s-2.28,2.42-1.14,4.33,2.21,3.59,3.23,5.43c1.92,3.42.86,6-2.9,7-2,.55-4.06,1.14-6.12,1.57s-2.28,1.91-2.28,3.58-.13,3.42,2.17,3.85a63,63,0,0,1,6.6,1.77c3.42,1.14,4.33,3.41,2.65,6.56q-1.57,2.88-3.42,5.69c-1.22,1.87-.23,3,1,4.33s2.49,2.17,4.33,1,3.74-2.28,5.7-3.42c3.15-1.77,5.33-.94,6.47,2.57q1.06,3.25,1.82,6.6c.5,2.23,2.17,2.28,4,2.36s3-.48,3.42-2.43a57.85,57.85,0,0,1,1.84-6.83c1-3,3.24-3.82,6-2.37a66.86,66.86,0,0,1,5.92,3.42c1.94,1.28,3.19.48,4.56-.91s2.16-2.45.86-4.31a60.55,60.55,0,0,1-3.22-5.43c-1.73-3.22-.76-5.7,2.68-6.84,2.08-.66,4.27-1,6.33-1.78a3.7,3.7,0,0,0,2.18-1.87c1-3.19,0-4.86-3.22-5.7-.76-.21-1.51-.46-2.27-.66-7.73-2.07-8.26-3.42-4.13-10.25,1-1.46,1.76-3,2.47-4.26ZM230.8,192.31a15.38,15.38,0,1,1,15.38-15.38A15.39,15.39,0,0,1,230.8,192.31Zm0-7.9a7.46,7.46,0,1,0-3.73-1,7.46,7.46,0,0,0,3.73,1Z"/></svg>